<svg class="animated" id="freepik_stories-design-team" xmlns="http://www.w3.org/2000/svg" viewBox="0 0 750 500" version="1.1"><style>@keyframes wind{0%{transform:rotate(0deg)}25%{transform:rotate(1deg)}75%{transform:rotate(-1deg)}}@keyframes fadeIn{0%{opacity:0}}@keyframes zoomIn{0%{opacity:0;transform:scale(.5)}}@keyframes heartbeat{0%,30%,40%,60%{transform:scale(1)}10%,50%{transform:scale(1.1)}}@keyframes lightSpeedRight{60%{transform:skewX(10deg);opacity:1}80%{transform:skewX(-2deg)}}@keyframes slideRight{0%{opacity:0;transform:translateX(30px)}}@keyframes floating{0%{opacity:1;transform:translateY(0)}50%{transform:translateY(-10px)}}@keyframes slideLeft{0%{opacity:0;transform:translateX(-30px)}}@keyframes slideUp{0%{opacity:0;transform:translateY(30px)}}svg#freepik_stories-design-team:not(.animated) .animable{opacity:0}</style><g id="freepik--background-complete--inject-53" class="animable" style="transform-origin:378.385px 258.63px;animation:1.5s Infinite linear wind;animation-delay:0s"><path d="M207.83 89.87h-46.07V43.8h46.07zm-45.07-1h44.07V44.8h-44.07z" style="transform-origin:184.795px 66.835px" id="elkit52fr0to" class="animable" fill="#e0e0e0"/><path d="M207.33 44.3c.11.1-9.9 10.27-22.35 22.72s-22.62 22.46-22.72 22.35 9.9-10.27 22.35-22.72 22.62-22.45 22.72-22.35z" style="transform-origin:184.795px 66.8351px" id="el9q0tp1jvll" class="animable" fill="#e0e0e0"/><path d="M205 89.66a2.3 2.3 0 01-.41-.47l-1.07-1.41c-.92-1.23-2.27-3-4-5.17-3.37-4.34-8.2-10.22-13.88-16.39s-11.17-11.44-15.23-15.15c-2-1.85-3.68-3.34-4.84-4.35l-1.32-1.19c-.29-.27-.45-.42-.43-.44a3.22 3.22 0 01.5.36l1.38 1.11c1.2 1 2.9 2.41 5 4.24 4.13 3.65 9.65 8.89 15.36 15.07S196.55 78 199.85 82.38c1.66 2.21 3 4 3.83 5.28l1 1.47a3.71 3.71 0 01.32.53z" style="transform-origin:184.409px 67.375px" id="elnznh4g0ee3" class="animable" fill="#e0e0e0"/><path d="M710.08 214.1H664V168h46.08zm-45.08-1h44.08V169H665z" style="transform-origin:687.04px 191.05px" id="ele0rsy6j1bj" class="animable" fill="#e0e0e0"/><path d="M709.58 168.53c.1.1-9.91 10.27-22.35 22.72s-22.62 22.45-22.73 22.35 9.91-10.27 22.36-22.72 22.62-22.46 22.72-22.35z" style="transform-origin:687.04px 191.065px" id="eloaqux5cje6q" class="animable" fill="#e0e0e0"/><path d="M707.24 213.89a3.09 3.09 0 01-.4-.47l-1.08-1.42c-.92-1.23-2.26-3-4-5.18-3.38-4.34-8.2-10.21-13.89-16.38S676.76 179 672.7 175.3c-2-1.86-3.69-3.34-4.84-4.36l-1.32-1.18a3.46 3.46 0 01-.44-.44 2.37 2.37 0 01.51.36l1.38 1.11c1.2 1 2.89 2.41 5 4.24 4.13 3.64 9.66 8.89 15.37 15.07s10.48 12.11 13.79 16.51c1.65 2.2 3 4 3.83 5.28l1 1.47a2.22 2.22 0 01.26.53z" style="transform-origin:686.67px 191.605px" id="elqvpjte9r86s" class="animable" fill="#e0e0e0"/><path d="M80.75 284.83H34.67v-46.08h46.08zm-45.08-1h44.08v-44.08H35.67z" style="transform-origin:57.71px 261.79px" id="elvi39q1fuyd" class="animable" fill="#e0e0e0"/><path d="M80.25 239.25c.1.11-9.91 10.28-22.36 22.73s-22.62 22.45-22.72 22.35 9.9-10.27 22.35-22.72 22.62-22.46 22.73-22.36z" style="transform-origin:57.71px 261.79px" id="elyvus1s5jay" class="animable" fill="#e0e0e0"/><path d="M77.91 284.62a2.3 2.3 0 01-.41-.47l-1.07-1.41c-.92-1.24-2.27-3-4-5.18-3.37-4.34-8.2-10.21-13.88-16.38S47.42 249.74 43.36 246c-2-1.86-3.68-3.34-4.84-4.36l-1.32-1.18a2.88 2.88 0 01-.43-.44 2.52 2.52 0 01.5.36l1.38 1.11c1.2 1 2.9 2.41 5 4.24 4.13 3.64 9.65 8.89 15.36 15.07s10.49 12.11 13.79 16.51c1.66 2.2 3 4 3.83 5.28l1 1.47a3.71 3.71 0 01.28.56z" style="transform-origin:57.34px 262.32px" id="el7w4kqp90t1y" class="animable" fill="#e0e0e0"/><path d="M637.15 375.34a34.1 34.1 0 00-14.65-5c-2.4-.24-5-.17-6.93 1.28a1.41 1.41 0 00-.72 1.26 1.57 1.57 0 00.68.87c6 4.55 15 5.12 21.62 1.64" style="transform-origin:626px 373.936px" id="elc2gfdgz4fss" class="animable" fill="#e0e0e0"/><path d="M636.77 374.92a71.4 71.4 0 01-9.46-8.33 23.93 23.93 0 01-5.93-11 4.41 4.41 0 01.46-3.67c7.55 5.89 13.48 13.51 14.93 23" style="transform-origin:628.971px 363.42px" id="elb9f2nrund7a" class="animable" fill="#e0e0e0"/><path d="M637.07 375.28a34.16 34.16 0 01.18-12.43 16.74 16.74 0 016.62-10.25c1.3 3 .74 6.56-.18 9.74a47.32 47.32 0 01-6.56 13.82" style="transform-origin:640.611px 364.38px" id="el8p52kjose8" class="animable" fill="#e0e0e0"/><path d="M644.47 388.53c-4.49.55-8.4 2.91-11.75 6A22.17 22.17 0 00626 406c4.41-.28 8.14-3.38 10.85-6.86s4.59-7.31 7.57-10.56" style="transform-origin:635.235px 397.265px" id="eldp68htr61nl" class="animable" fill="#e0e0e0"/><path d="M646.07 390.65a29 29 0 013.35-27.42c2.56 9.1 1.62 19.38-3.35 27.42" style="transform-origin:647.428px 376.94px" id="el8l2t2bhm12u" class="animable" fill="#e0e0e0"/><path d="M655.84 402.28a21 21 0 00-20 11.54c-.25.5-.47 1.13-.14 1.57a1.49 1.49 0 001.33.39c4-.25 7.45-2.63 10.34-5.34s5.4-5.83 8.59-8.17" style="transform-origin:645.747px 409.027px" id="el88m51u3kw7f" class="animable" fill="#e0e0e0"/><path d="M655.53 401.65a37.34 37.34 0 01-.37-20.85c.74-2.68 2-5.51 4.45-6.76a.84.84 0 01.68-.12.91.91 0 01.43.49 12.64 12.64 0 011 6 37.67 37.67 0 01-.94 6.05c-.78 3.7-1.2 7.68-3.22 10.87a22.1 22.1 0 00-1.3 2.39c-.38.81-.38 1.09-.73 1.74" style="transform-origin:657.806px 387.772px" id="el25roa7kym0i" class="animable" fill="#e0e0e0"/><path d="M681.4 405.51c-1.92-7.29.12-16.13 4.71-22.11.34-.44.79-.91 1.34-.86.84.08 1.06 1.21 1 2.06a40 40 0 01-7.08 20.91" style="transform-origin:684.57px 394.023px" id="el8rrrkwu8l6a" class="animable" fill="#e0e0e0"/><path d="M683.73 407.1a32.16 32.16 0 0026.38-5.37 21.37 21.37 0 00-14.28-1.73c-4.77 1.09-9.13 3.23-12.1 7.12" style="transform-origin:696.92px 403.713px" id="elv2czq4ks37k" class="animable" fill="#e0e0e0"/><path d="M685.7 402.25c5-8.09 14.47-13.37 23.94-13.85-1.09 3.85-4.26 6.85-7.83 8.66s-7.56 2.6-11.49 3.36c-1.53.3-3.63.62-4.62 1.83" style="transform-origin:697.67px 395.325px" id="eligpoi8zh9y" class="animable" fill="#e0e0e0"/><path d="M681.89 378.69a69.11 69.11 0 003.06-14c.37-4.78-.31-9.77-2.79-13.87-4.63 9-5.1 19.44-.41 28.38" style="transform-origin:681.748px 365.01px" id="elds7tkzlfgcr" class="animable" fill="#e0e0e0"/><path d="M697.49 370.81C702.91 361 714 353.1 725.15 352c-4.32 10.74-16.09 19-27.66 18.81" style="transform-origin:711.32px 361.407px" id="eln3i02xng7l8" class="animable" fill="#e0e0e0"/><path d="M694.08 372.74c8.08 1.23 15 6.39 22.52 9.52a10.14 10.14 0 005.09 1 4 4 0 002.49-7.05 10.86 10.86 0 00-3.7-2.25c-8.22-3.42-17-3.51-25.7-1.43" style="transform-origin:709.837px 377.212px" id="elwomzynkua48" class="animable" fill="#e0e0e0"/><path d="M689.41 378.41c1.82.52 2.45 1.47 3.9 2.7a42 42 0 0017.07 8.77c.65.17 1.51.23 1.83-.36s-.07-1.14-.44-1.6a23.44 23.44 0 00-10.31-7c-3.94-1.47-7.35-3.24-12.05-2.86" style="transform-origin:700.869px 384.002px" id="elpfj7yd6q6wb" class="animable" fill="#e0e0e0"/><path d="M684.13 344.18a32.33 32.33 0 0024.77 8.43 1.72 1.72 0 001.13-.41c.62-.68-.13-1.72-.85-2.29-7.29-5.68-16.11-8-25-5.73" style="transform-origin:697.195px 348.028px" id="elu64lulsatt" class="animable" fill="#e0e0e0"/><path d="M690.38 341.89a34.54 34.54 0 0130.92-5.1 24.58 24.58 0 01-14.73 6.47 46.81 46.81 0 01-16.19-1.37" style="transform-origin:705.84px 339.31px" id="el838nl3msy4o" class="animable" fill="#e0e0e0"/><path d="M687.9 326.16c-.72-7.27-.25-13-.76-20.31 0-.59-.16-1.29-.71-1.5-.76-.29-1.39.64-1.64 1.42a23.27 23.27 0 003.1 20.23" style="transform-origin:685.814px 315.228px" id="elko2mxj3l6n" class="animable" fill="#e0e0e0"/><path d="M687.38 327a42.71 42.71 0 0012-11.7c2.38-3.25 4.38-7.15 3.84-11.15a11.54 11.54 0 00-8.69 4.32 24.16 24.16 0 00-4.42 8.9c-1 3.2-1.64 6.49-2.77 9.63" style="transform-origin:695.324px 315.575px" id="el98otvvjk60c" class="animable" fill="#e0e0e0"/><path d="M699.21 323.68a97.05 97.05 0 0029.63-17.48c-3.54-1.42-7.59-.57-11.13.86a35.08 35.08 0 00-18.66 16.54" style="transform-origin:713.945px 314.575px" id="ely0l51h4rmh8" class="animable" fill="#e0e0e0"/><path d="M690.7 330.94c5.47.6 11 1 16.46.08s10.37-3 15.36-5.1a1.84 1.84 0 001-.8 1.19 1.19 0 00-.37-1.31 3.1 3.1 0 00-1.31-.61c-5.42-1.52-11.27-.81-16.6 1a77.11 77.11 0 00-14.58 6.75" style="transform-origin:707.123px 326.967px" id="elbhbz5n0sbag" class="animable" fill="#e0e0e0"/><path d="M659.46 344.43c-3.73-7.54-3.49-16.33-.26-24.09 2.27 3.45 2.54 7.86 2.13 12s-1.67 8.36-1.75 12.49" style="transform-origin:659.105px 332.585px" id="elohfatch1la" class="animable" fill="#e0e0e0"/><path d="M644.55 336.91a33.61 33.61 0 00-25 10.63 23.39 23.39 0 0013.71-2.54 70 70 0 0011.74-7.83" style="transform-origin:632.275px 342.307px" id="elf3mh5b3383f" class="animable" fill="#e0e0e0"/><path d="M634.53 333.55c-4.56-.37-8.95-.93-13.33.41a16 16 0 00-10.2 8.62 24.13 24.13 0 0012.5-2.36 72.18 72.18 0 0011-6.67" style="transform-origin:622.765px 337.885px" id="el36ort3p2hrl" class="animable" fill="#e0e0e0"/><path d="M649.37 333.71c-4.1-2.69-8.31-5.43-13.09-6.54s-10.31-.29-13.64 3.31c3.87 2.27 8.56 2.54 13 2.53s10-.05 14.2 1.44" style="transform-origin:636.24px 330.58px" id="elcm94f90d10d" class="animable" fill="#e0e0e0"/><path d="M649.4 333.92c-7-6.88-9.67-19.25-6.85-28.66a43.67 43.67 0 016.85 28.66" style="transform-origin:645.552px 319.59px" id="elt8e87sx49yk" class="animable" fill="#e0e0e0"/><path d="M668.67 314.42c1.33-3.08 2.26-6.3 3.44-9.43a27.11 27.11 0 014.91-8.7 12.94 12.94 0 018.68-4.5 35 35 0 01-16.85 22.68" style="transform-origin:677.185px 303.13px" id="el98bjbwzxjxn" class="animable" fill="#e0e0e0"/><path d="M665.19 318.48c-2.19-3-4.72-7.1-7.69-9.35s-6.83-3.61-10.45-2.74a24.35 24.35 0 0018.14 12.09" style="transform-origin:656.12px 312.302px" id="eletnp1kzccs" class="animable" fill="#e0e0e0"/><path d="M665.88 314.67a52.39 52.39 0 01-3.46-11.2 17.48 17.48 0 011.76-11.39c3.85 7.27 5.09 15.08 1.9 22.67" style="transform-origin:665.014px 303.415px" id="elrq242rabzq" class="animable" fill="#e0e0e0"/><path d="M668.71 292.08c2.18-7.22 8.78-12.53 15.91-15a5.86 5.86 0 012.79-.42 2.42 2.42 0 012.06 1.72c.26 1.22-.75 2.32-1.71 3.14a54.23 54.23 0 01-19 10.52" style="transform-origin:679.111px 284.357px" id="elijpc1e7fukr" class="animable" fill="#e0e0e0"/><path d="M668.79 286.18c.28-4.65.57-9.37 2.08-13.78s4.43-8.54 8.67-10.46c.72 4.69-1.35 9.37-3.85 13.41s-5.51 7.85-7 12.36" style="transform-origin:674.187px 274.825px" id="elhhzvbuzu83q" class="animable" fill="#e0e0e0"/><path d="M668.67 289.38c-1.8-5.26-2-11.93-5.13-16.51-2.2-3.2-5.72-5.38-7.62-8.77a13.36 13.36 0 00.44 9.95 28.85 28.85 0 005.83 8.34c2.33 2.49 4.32 4.36 6.48 7" style="transform-origin:661.918px 276.745px" id="el1trdppp5j0f" class="animable" fill="#e0e0e0"/><path d="M668.71 444.17c-.14 0-.26-35.07-.27-78.31s.09-78.31.23-78.31.27 35.05.28 78.31-.1 78.31-.24 78.31z" style="transform-origin:668.695px 365.86px" id="elxq0aoag5k7r" class="animable" fill="#e0e0e0"/><path d="M699.35 339.14a8.61 8.61 0 01-1.32.49l-3.62 1.23c-3.06 1-7.27 2.55-11.83 4.42s-8.77 3.51-11.2 5.61a8.2 8.2 0 00-2.25 3c-.35.83-.41 1.33-.46 1.32a1.23 1.23 0 010-.36 5.46 5.46 0 01.26-1 7.9 7.9 0 012.19-3.17 19.86 19.86 0 014.86-3c2-.91 4.1-1.85 6.39-2.79 4.58-1.88 8.81-3.34 11.9-4.3 1.55-.48 2.81-.83 3.69-1.07a6.35 6.35 0 011.39-.38z" style="transform-origin:684.003px 347.175px" id="elt3q7xhba4j" class="animable" fill="#e0e0e0"/><path d="M709.4 314.47a3.12 3.12 0 01-.37.39l-1.13 1.06-4.2 3.81-14 12.45c-5.46 4.86-10.17 9.5-13.44 13-1.64 1.74-2.93 3.19-3.81 4.2-.41.46-.74.85-1 1.16a2.58 2.58 0 01-.38.38s.09-.16.3-.45.52-.7.94-1.22c.84-1.05 2.09-2.54 3.69-4.32a178.67 178.67 0 0113.37-13.13c5.48-4.84 10.46-9.2 14.08-12.34l4.31-3.69 1.19-1c.28-.21.43-.32.45-.3z" style="transform-origin:690.235px 332.694px" id="elq1pk726qo1" class="animable" fill="#e0e0e0"/><path d="M683.83 337.12c-.14-.06 1-2.7 2.13-6s1.69-6.14 1.83-6.12a20.3 20.3 0 01-1.35 6.28 39.81 39.81 0 01-1.7 4.21 6.48 6.48 0 01-.91 1.63z" style="transform-origin:685.804px 331.06px" id="elyjxcs8xd7f" class="animable" fill="#e0e0e0"/><path d="M668.74 358.34a6.19 6.19 0 01-.84-1l-2.15-2.77c-1.81-2.33-4.31-5.56-7.12-9.1s-5.38-6.7-7.25-9l-2.2-2.73a6.63 6.63 0 01-.76-1 6 6 0 01.91.91c.56.61 1.36 1.51 2.33 2.63 1.93 2.23 4.56 5.37 7.37 8.91s5.27 6.8 7 9.2c.87 1.2 1.56 2.18 2 2.86a5.67 5.67 0 01.71 1.09z" style="transform-origin:658.58px 345.54px" id="el5osnfnifvd3" class="animable" fill="#e0e0e0"/><path d="M662 349.72a12.42 12.42 0 01-2.81-5.27 15.26 15.26 0 01-.64-5.31h.22c-.1.41-.17.62-.21.62s0-.23 0-.65h.23a24.14 24.14 0 00.89 5.16 40.33 40.33 0 002.32 5.45z" style="transform-origin:660.263px 344.415px" id="ellr96ynbt32" class="animable" fill="#e0e0e0"/><path d="M653.35 338.81a8.92 8.92 0 00-2-1.14 13.15 13.15 0 00-5.45-.44 34 34 0 00-5.5.89 16.81 16.81 0 01-2.26.54 8.1 8.1 0 012.17-.89 25.23 25.23 0 015.55-1 12 12 0 015.63.6 3.49 3.49 0 011.86 1.44z" style="transform-origin:645.745px 337.738px" id="elwg8o46vr59" class="animable" fill="#e0e0e0"/><path d="M651.29 336.16c0 .08-1.14-.46-3-1.09a30.82 30.82 0 00-7.51-1.55 31.27 31.27 0 00-7.66.39c-1.94.35-3.11.71-3.14.63s.27-.16.8-.34a17.7 17.7 0 012.27-.64 26.89 26.89 0 0115.37 1.17 19 19 0 012.15 1c.48.27.74.4.72.43z" style="transform-origin:640.634px 334.555px" id="el0aet484sdso6" class="animable" fill="#e0e0e0"/><path d="M668.67 325a64.41 64.41 0 01-2.19-7.63 63.07 63.07 0 01-1.71-7.75 61.77 61.77 0 012.2 7.63 60.54 60.54 0 011.7 7.75z" style="transform-origin:666.72px 317.31px" id="elp6ov7co69x" class="animable" fill="#e0e0e0"/><path d="M668.81 325a36.36 36.36 0 00-2.43-4.56 20.32 20.32 0 00-3.58-3.7 3.3 3.3 0 011.38.71 11.41 11.41 0 012.62 2.69 10 10 0 012.01 4.86z" style="transform-origin:665.805px 320.87px" id="el9tb68gomzkp" class="animable" fill="#e0e0e0"/><path d="M668.71 425.48c-.05 0-.16-.85-.55-2.34a33.31 33.31 0 00-2.35-6.07c-2.42-4.95-6.83-11.22-12.43-17.51-2.77-3.17-5.47-6.16-7.75-9a64.09 64.09 0 01-5.55-8 39.81 39.81 0 01-2.8-5.94c-.25-.73-.44-1.3-.55-1.7a2.52 2.52 0 01-.14-.6s.3.8.88 2.23a44.58 44.58 0 002.92 5.83 67.63 67.63 0 005.6 7.88c2.3 2.83 5 5.81 7.77 9 5.62 6.3 10 12.66 12.38 17.69a30.86 30.86 0 012.21 6.18c.16.76.27 1.35.31 1.76a2.61 2.61 0 01.05.59z" style="transform-origin:652.651px 399.9px" id="elet28ilop4g" class="animable" fill="#e0e0e0"/><path d="M696.4 394.2a11.23 11.23 0 01-1.4.8 32 32 0 00-3.77 2.49 42.65 42.65 0 00-4.94 4.5c-1.73 1.84-3.52 4-5.35 6.25-3.64 4.57-7 8.62-9.1 11.85-1 1.61-1.79 3-2.28 3.91a13.49 13.49 0 01-.8 1.46s0-.15.13-.41.26-.66.49-1.14a35.94 35.94 0 012.16-4c2-3.31 5.37-7.41 9-12 1.83-2.29 3.64-4.42 5.4-6.25a39.32 39.32 0 015.07-4.47 26.7 26.7 0 013.89-2.38c.48-.24.87-.39 1.13-.5a1.48 1.48 0 01.37-.11z" style="transform-origin:682.58px 409.83px" id="elp5cuicdcol" class="animable" fill="#e0e0e0"/><path d="M696.94 404.35a22.41 22.41 0 01-3.07.44 40.3 40.3 0 00-7.27 1.44 21.66 21.66 0 00-6.51 3.41c-1.51 1.16-2.21 2.12-2.28 2.07s.12-.28.45-.71a11.76 11.76 0 011.6-1.63 19.8 19.8 0 016.58-3.63 32.79 32.79 0 017.4-1.3 16.35 16.35 0 013.1-.09z" style="transform-origin:687.368px 408.013px" id="eli5jfd9556co" class="animable" fill="#e0e0e0"/><path d="M678.7 410.59c-.16-.09 1.22-2.2 2.3-5s1.24-5.38 1.42-5.35a5.19 5.19 0 010 1.65 17.26 17.26 0 01-.9 3.87 18.31 18.31 0 01-1.78 3.56c-.59.82-.98 1.31-1.04 1.27z" style="transform-origin:680.587px 405.416px" id="eljydstvkp9qj" class="animable" fill="#e0e0e0"/><path d="M705.37 367a2.58 2.58 0 01-.49.27l-1.45.65c-.63.27-1.39.61-2.26 1.07s-1.88.91-2.93 1.54l-1.67.95c-.58.33-1.16.73-1.77 1.11-1.23.75-2.47 1.67-3.78 2.61a65.09 65.09 0 00-14.59 15.1c-.9 1.35-1.78 2.62-2.48 3.88-.37.62-.74 1.21-1.06 1.8s-.6 1.16-.89 1.7c-.6 1.08-1 2.1-1.44 3s-.74 1.65-1 2.29l-.6 1.46a2 2 0 01-.25.5 2.36 2.36 0 01.15-.53l.52-1.5c.22-.65.51-1.44.91-2.34s.8-1.94 1.38-3l.87-1.73c.31-.6.68-1.19 1-1.83.7-1.27 1.57-2.56 2.46-3.92a62.48 62.48 0 0114.7-15.21c1.33-.94 2.59-1.85 3.84-2.59.62-.38 1.2-.77 1.79-1.1l1.7-.92c1.07-.62 2.1-1.06 3-1.49a24.89 24.89 0 012.31-1l1.48-.57a3.48 3.48 0 01.55-.2z" style="transform-origin:687.04px 385.965px" id="elgnwtlqetzwa" class="animable" fill="#e0e0e0"/><path d="M683.45 381.65a3.57 3.57 0 011.21-1.8 7.61 7.61 0 014.85-1.86 13.21 13.21 0 015.11 1 6.81 6.81 0 011.93.94 12.22 12.22 0 01-2-.6 15 15 0 00-5-.83 7.92 7.92 0 00-4.64 1.62 14.62 14.62 0 00-1.46 1.53z" style="transform-origin:690px 379.82px" id="elhsjlt1nje2q" class="animable" fill="#e0e0e0"/><path d="M680.18 385a13 13 0 001.07-9.17 3.07 3.07 0 01.57 1.3 9.3 9.3 0 01-.79 6.73c-.43.8-.8 1.2-.85 1.14z" style="transform-origin:681.152px 380.418px" id="elc8wh5iubwit" class="animable" fill="#e0e0e0"/><path d="M644.49 430.5c.76 13.4 4.8 27 11 40.81h27c5.92-13.64 9.68-27.25 10.35-40.81z" style="transform-origin:668.665px 450.905px" id="elbrq0nv7m64e" class="animable" fill="#e0e0e0"/><path d="M688.48 452.18c0 .14-8.89.26-19.86.26s-19.86-.12-19.86-.26 8.89-.25 19.86-.25 19.86.07 19.86.25z" style="transform-origin:668.62px 452.185px" id="elnltebu3rdf" class="animable" fill="#fafafa"/><path d="M687.88 457c0 .14-8.34.25-18.62.25s-18.62-.11-18.62-.25 8.33-.25 18.62-.25 18.62.15 18.62.25z" style="transform-origin:669.26px 457px" id="elscrzjpqhi5i" class="animable" fill="#fafafa"/><path d="M655.93 439.3a74.53 74.53 0 010 12.44 77.5 77.5 0 010-12.44z" style="transform-origin:655.935px 445.52px" id="el0bn1p6ciy66" class="animable" fill="#fafafa"/><path d="M670.4 439.3a79.89 79.89 0 010 12.88 83.07 83.07 0 010-12.88z" style="transform-origin:670.405px 445.74px" id="elli3oe3zhamn" class="animable" fill="#fafafa"/><path d="M684 439.19a86.45 86.45 0 010 13.14 86.45 86.45 0 010-13.14z" style="transform-origin:684px 445.76px" id="elbtg1nb83xmh" class="animable" fill="#fafafa"/><path d="M692 439.3c0 .14-10.43.25-23.29.25s-23.3-.11-23.3-.25 10.43-.25 23.3-.25 23.29.11 23.29.25z" style="transform-origin:668.705px 439.3px" id="elbi1x5mm1hl" class="animable" fill="#fafafa"/><path d="M674.14 116.54h-7.37v-1.47h7.37zm-14.75 0H652v-1.47h7.37zm-14.75 0h-7.37v-1.47h7.37zm-14.75 0h-7.37v-1.47h7.37zm45-1.62h-1.49v-7.37h1.48zm-57.38-.74H616v-7.37h1.48zm57.38-14h-1.49v-7.39h1.48zm-57.38-.74H616v-7.38h1.48zm57.38-14h-1.49V78h1.48zm-57.38-.74H616v-7.39h1.48zm57.38-14h-1.49v-7.41h1.48zm-57.38-.74H616v-7.4h1.48zm54.13-10.77h-7.37v-1.5h7.37zm-14.75 0h-7.37v-1.5h7.37zm-14.75 0h-7.37v-1.5h7.37zm-14.75 0H620v-1.5h7.37z" style="transform-origin:645.445px 87.115px" id="elsmn02pqdtr" class="animable" fill="#e0e0e0"/><path d="M617.26 64.58a5.43 5.43 0 115.42-5.42 5.43 5.43 0 01-5.42 5.42zm0-9.37a3.95 3.95 0 104 3.95 4 4 0 00-4-3.95z" style="transform-origin:617.25px 59.15px" id="el4xkp3zz4g2t" class="animable" fill="#e0e0e0"/><path d="M673.85 64.58a5.43 5.43 0 115.42-5.42 5.43 5.43 0 01-5.42 5.42zm0-9.37a3.95 3.95 0 103.95 3.95 4 4 0 00-3.95-3.95z" style="transform-origin:673.84px 59.15px" id="elzlvhyx4m5bf" class="animable" fill="#e0e0e0"/><path d="M617.26 122.78a5.43 5.43 0 115.42-5.43 5.44 5.44 0 01-5.42 5.43zm0-9.38a3.95 3.95 0 104 3.95 4 4 0 00-4-3.95z" style="transform-origin:617.25px 117.35px" id="eluckgn99iq5r" class="animable" fill="#e0e0e0"/><path d="M673.85 122.78a5.43 5.43 0 115.42-5.43 5.44 5.44 0 01-5.42 5.43zm0-9.38a3.95 3.95 0 103.95 3.95 4 4 0 00-3.95-3.95z" style="transform-origin:673.84px 117.35px" id="elctrkny998pk" class="animable" fill="#e0e0e0"/><path d="M644.26 76.64h-10.62v-5h27.18v5h-10.61v27h-6z" style="transform-origin:647.23px 87.64px" id="el11304536n65i" class="animable" fill="#e0e0e0"/><path d="M54.84 135.4H39.42l-1.83 4.25a9.41 9.41 0 00-.9 3.51 2.91 2.91 0 001.48 2.7 12.48 12.48 0 004.28.77v1.19H27.93v-1.19a6.42 6.42 0 003.86-1.94 25.94 25.94 0 003.74-6.59l15.61-34.83h.61l15.74 35.8c1.5 3.39 2.74 5.52 3.7 6.4a5 5 0 003.09 1.16v1.19H53.17v-1.19H54a6.54 6.54 0 003.57-.71 1.71 1.71 0 00.71-1.48 4.27 4.27 0 00-.19-1.19c-.05-.19-.37-1-1-2.41zm-1.09-2.4l-6.5-15-6.7 15z" style="transform-origin:51.105px 125.545px" id="elzc67p928n3g" class="animable" fill="#e0e0e0"/><path d="M83.11 395.37c4.15-2.14 9-2.42 13.65-1.66 2.48.41 5.06 1.15 6.74 3s2 5.13.07 6.73a6.51 6.51 0 01-4.25 1.08c-3.61 0-7.61-.68-10.49 1.49-1.65 1.24-2.74 3.3-4.71 3.91a4.65 4.65 0 01-5.12-2.27 7.91 7.91 0 01-.58-5.86 8.93 8.93 0 014.69-6.42z" style="transform-origin:91.4993px 401.684px" id="elmrdkzahkadp" class="animable" fill="#ebebeb"/><path d="M73.6 377c2.54 3.62 7.47 2.42 9.76.21s3.26-5.42 4.14-8.48c2-7 4-14.32 2.54-21.43a11.9 11.9 0 00-2.74-5.83 6.19 6.19 0 00-5.89-2c-2.49.65-4 3.09-5.16 5.41a51 51 0 00-5 21.93c0 3.53.4 7.23 2.39 10.15" style="transform-origin:80.8956px 359.327px" id="elko6m5fum6i" class="animable" fill="#ebebeb"/><path d="M66.63 382.21c2.76-3.27 3.28-8 2.05-12.14a23.3 23.3 0 00-7.19-10.43A38.72 38.72 0 0048.62 352a13.76 13.76 0 00-5.79-1 6.08 6.08 0 00-4.83 3c-1.36 2.58-.06 5.72 1.35 8.28a96.78 96.78 0 008.46 12.87c2.53 3.27 5.43 6.5 9.3 8s7.89 1.28 9.89-1.4" style="transform-origin:53.3669px 367.532px" id="elssm38wqho4f" class="animable" fill="#ebebeb"/><path d="M73.43 431.7a8.25 8.25 0 00.23-1.65c.12-1.2.26-2.71.44-4.5a63.76 63.76 0 011-6.59 49.32 49.32 0 012.4-7.78 28.85 28.85 0 014-7.05 14.8 14.8 0 015-4.17 14.14 14.14 0 014.24-1.32 7.69 7.69 0 001.64-.24 7.68 7.68 0 00-1.67 0 13 13 0 00-4.42 1.14 15 15 0 00-5.3 4.22 28 28 0 00-4.12 7.18 47.66 47.66 0 00-2.37 7.91 55.83 55.83 0 00-.88 6.68c-.14 1.91-.2 3.45-.22 4.52a7.3 7.3 0 00.03 1.65z" style="transform-origin:82.8735px 415.027px" id="elhislvla2t5p" class="animable" fill="#e0e0e0"/><path d="M73.74 428.24a3.32 3.32 0 000-.77v-2.18c0-1.9 0-4.65.1-8 .16-6.78.75-14.07 1.87-24.36 1.07-9.67 2.51-20.93 4-28.25.32-1.66.65-3.16 1-4.47s.54-2.45.78-3.37.38-1.56.51-2.12a3.75 3.75 0 00.14-.76 2.72 2.72 0 00-.27.72c-.17.55-.38 1.24-.63 2.09s-.57 2-.9 3.35-.71 2.8-1.06 4.46a247.44 247.44 0 00-4.22 26.21c-1.13 10.31-1.64 19.7-1.68 26.5-.05 3.39 0 6.14.11 8 .06.89.1 1.61.14 2.19a3.83 3.83 0 00.11.76z" style="transform-origin:77.7503px 391.1px" id="el84cb15m4dbv" class="animable" fill="#e0e0e0"/><path d="M73.79 410.13a17.24 17.24 0 000-2.28c-.08-1.47-.29-3.59-.7-6.19a82.2 82.2 0 00-2-9 74.52 74.52 0 00-3.8-10.66 56.83 56.83 0 00-11.07-17.24 27.7 27.7 0 00-2.6-2.42c-.4-.34-.76-.67-1.12-.94l-1-.7a13.9 13.9 0 00-1.92-1.23 68.45 68.45 0 016.3 5.62 59.69 59.69 0 0110.79 17.18 84.61 84.61 0 013.8 10.56c1 3.31 1.64 6.36 2.14 8.93s.74 4.67.91 6.12a13.1 13.1 0 00.27 2.25z" style="transform-origin:61.7039px 384.8px" id="elt1fv24xlsu" class="animable" fill="#e0e0e0"/><path style="transform-origin:74.065px 454.495px" id="elugfg49ygznf" class="animable" fill="#e0e0e0" d="M56.29 442.07l1.81 24.85h31.93l1.81-24.85H56.29z"/><path style="transform-origin:74.425px 437.17px" id="elr62efozm7f" class="animable" fill="#e0e0e0" d="M53.2 432.27h42.45v9.8H53.2z"/><path style="transform-origin:74.075px 467.325px" id="elqblf1x8v6ui" class="animable" fill="#ebebeb" d="M53.2 465.97v2.71h41.75v-2.71H53.2z"/><path style="transform-origin:74.315px 471.07px" id="el6iujy8kn735" class="animable" fill="#e0e0e0" d="M57.15 473.46l-1.95-4.78h38.23l-2.28 4.78h-34z"/><path d="M91.25 450.19s0 .08-.15.23l-.48.63c-.45.58-1.07 1.38-1.86 2.38l-.08.11-.08-.11-4.6-6.32h.26c-1.35 1.92-2.87 4.06-4.49 6.37l-.15.2-.15-.19-5.34-6.35h.31l-.29.37c-1.66 2.07-3.26 4.08-4.77 6l-.16.2-.15-.21-4.5-6.37h.26l-5.54 6.32-.1.11-.08-.13-1.73-2.91-.45-.78c-.1-.18-.14-.27-.13-.28a1.35 1.35 0 01.18.25l.5.75 1.82 2.86h-.18l5.46-6.4.14-.16.12.18c1.38 1.92 2.91 4.05 4.54 6.34h-.3l4.75-6 .3-.37.15-.19.16.19 5.32 6.36h-.3l4.54-6.35.13-.19.13.19 4.48 6.39h-.14c.82-1 1.47-1.75 1.94-2.32l.52-.6c.12-.14.18-.21.19-.2z" style="transform-origin:74.0243px 450.215px" id="elfc9xo69qv8u" class="animable" fill="#f5f5f5"/><path d="M92.29 441.9c0 .11-8 .2-17.87.2s-17.87-.09-17.87-.2 8-.2 17.87-.2 17.87.09 17.87.2z" style="transform-origin:74.42px 441.9px" id="el02x1ini4v05c" class="animable" fill="#f5f5f5"/><path d="M93.9 469c0 .11-8.69.2-19.42.2s-19.42-.09-19.42-.2 8.7-.2 19.42-.2 19.42.04 19.42.2z" style="transform-origin:74.48px 469px" id="elqsyrvsg4c2c" class="animable" fill="#f5f5f5"/></g><g id="freepik--Floor--inject-53" class="animable" style="transform-origin:375px 473.38px;animation:1.3s 1 forwards cubic-bezier(.36,-.01,.5,1.38) fadeIn;animation-delay:0s"><path d="M715.2 473.38c0 .15-152.33.26-340.18.26s-340.22-.11-340.22-.26 152.29-.26 340.22-.26 340.18.12 340.18.26z" style="transform-origin:375px 473.38px" id="ele4t0pgd90s" class="animable" fill="#263238"/></g><g id="freepik--Screen--inject-53" class="animable animator-active" style="transform-origin:390.365px 198.005px;animation:2.3s 1 forwards cubic-bezier(.36,-.01,.5,1.38) zoomIn,6s Infinite linear heartbeat;animation-delay:0s,2.3s"><path style="transform-origin:390.375px 197.88px;animation:2.3s 1 forwards cubic-bezier(.36,-.01,.5,1.38) zoomIn;animation-delay:0s" id="el0h1ja4rw5dlu" class="animable" fill="#fff" d="M542.35 43.53H238.4v283.64h135.33v25.06l22.16-25.06h146.46V43.53z"/></g><g id="freepik--Images--inject-53" class="animable" style="transform-origin:500.88px 419.825px;animation:2.9s 1 forwards cubic-bezier(.36,-.01,.5,1.38) lightSpeedRight,1.5s Infinite linear wind;animation-delay:0s,2.9s"><path style="transform-origin:525.135px 421.71px;animation:2.9s 1 forwards cubic-bezier(.36,-.01,.5,1.38) lightSpeedRight;animation-delay:0s" id="el7ny9xgm5b5m" class="animable" fill="#fafafa" d="M565.44 383.28l1.66 75.7-82.28 1.16-1.65-75.7 82.27-1.16z"/></g><g id="freepik--character-3--inject-53" class="animable" style="transform-origin:598.147px 282.645px;animation:1.6s 1 forwards cubic-bezier(.36,-.01,.5,1.38) slideRight,3s Infinite linear floating;animation-delay:0s,1.6s"><path d="M592.38 253.11l-1.16-.35c-5.43 2.24-9 7.59-10.89 13.16s-2.33 11.49-3.42 17.26-3 11.65-7 15.87a65.25 65.25 0 008.44 6.15 6.59 6.59 0 003.14 1.22c1.81.07 3.36-1.22 4.6-2.54 6.1-6.52 6.85-18.27 7.49-27.18s1.29-15.02-1.2-23.59z" style="transform-origin:582.037px 279.591px;animation:1.6s 1 forwards cubic-bezier(.36,-.01,.5,1.38) slideRight;animation-delay:0s" id="el6l8hijnx37u" class="animable" fill="#1b1b51"/></g><g id="freepik--character-1--inject-53" class="animable" style="transform-origin:174.879px 276.28px;animation:1.7s 1 forwards cubic-bezier(.36,-.01,.5,1.38) slideLeft,6s Infinite linear wind;animation-delay:0s,1.7s"><path style="transform-origin:167.41px 169.995px;animation:1.7s 1 forwards cubic-bezier(.36,-.01,.5,1.38) slideLeft;animation-delay:0s" id="el4jo00r1wzz5" class="animable" fill="#455a64" d="M146.51 152.91h41.8l-.71 26.52-33.59 7.65-7.5-34.17z"/></g><g id="freepik--character-2--inject-53" class="animable" style="transform-origin:332.74px 359.704px;animation:1.6s 1 forwards cubic-bezier(.36,-.01,.5,1.38) slideUp,1.5s Infinite linear wind;animation-delay:0s,1.6s"><path d="M351.43 400.68L369 383.37l-31.24-53.49a30.13 30.13 0 00-12-8.33l-11-4.18-27.34-5L268 320a11.61 11.61 0 00-7.27 12.16l5.08 42.75 3 55.66 70.54-12.23-7.09-20.59.23-32.1z" style="transform-origin:314.825px 371.47px" id="elgfcavkoupv" class="animable" fill="#1b1b51"/><path d="M332.86 396.38c.17 0 .21-11.12.1-24.83s-.34-24.83-.5-24.83-.21 11.12-.1 24.84.34 24.82.5 24.82z" style="transform-origin:332.661px 371.55px" id="elp2m1tdsssn" class="animable" fill="#263238"/><path d="M330.28 404.54l-42.63-17.16a9.74 9.74 0 01-6.07-8.29l-3.12-40.87s.37-17.38-10.46-18.22l-6.17 2.43c-8 4.24-10 15.86-8.88 24.83 1.55 12.75 2.19 30.79 3.92 41.86 1.41 9.05 6.85 16.21 15.46 19.34l52.5 11.37z" style="transform-origin:291.472px 369.915px" id="el9dtqb9lraz" class="animable" fill="#1b1b51"/><path d="M279.07 344.46a5.21 5.21 0 01.14.93q.09 1 .27 2.7c.22 2.39.52 5.76.9 9.91s.79 9.18 1.26 14.7c.12 1.38.24 2.8.36 4.25a32.42 32.42 0 00.55 4.37 7.22 7.22 0 002.11 3.83 14.38 14.38 0 003.94 2.45c11.75 5.09 22.58 9.29 30.45 12.23l9.33 3.44 2.54.94a4.49 4.49 0 01.87.36 5.67 5.67 0 01-.91-.26l-2.57-.83c-2.23-.74-5.45-1.85-9.4-3.27-7.91-2.85-18.76-7-30.55-12.09a14.83 14.83 0 01-4.09-2.56 7.84 7.84 0 01-2.27-4.11 31.93 31.93 0 01-.54-4.45c-.12-1.45-.23-2.87-.34-4.26-.43-5.52-.82-10.51-1.14-14.71s-.55-7.53-.72-9.93c-.07-1.13-.13-2-.17-2.7a6.05 6.05 0 01-.02-.94z" style="transform-origin:305.425px 374.515px" id="elx5l5bl6zr9m" class="animable" fill="#263238"/><path d="M254.65 366.67a1.9 1.9 0 01.08.55l.15 1.58c.12 1.46.29 3.42.5 5.8s.53 5.35 1 8.57a80 80 0 001.92 10.35 15.39 15.39 0 002.08 4.94 28.46 28.46 0 003.18 3.91 27.08 27.08 0 006.83 5.12 25.48 25.48 0 007.48 2.45 2.3 2.3 0 01-.55 0 12.37 12.37 0 01-1.58-.21 20.92 20.92 0 01-5.54-1.87 26.87 26.87 0 01-7-5.11 28.23 28.23 0 01-3.27-4 16 16 0 01-2.17-5.09 79.17 79.17 0 01-1.9-10.44c-.39-3.23-.65-6.15-.83-8.61s-.28-4.44-.33-5.82v-1.58a2 2 0 01-.05-.54z" style="transform-origin:266.259px 388.313px" id="eljys5aixn3v8" class="animable" fill="#263238"/><path d="M272.88 395.27a6.13 6.13 0 01.77-2.27 14.65 14.65 0 018.65-7.39 6.37 6.37 0 012.37-.41c0 .1-.88.27-2.24.79a17.15 17.15 0 00-4.83 2.88 16.86 16.86 0 00-3.59 4.32c-.73 1.26-1.01 2.11-1.13 2.08z" style="transform-origin:278.775px 390.235px" id="ele0z6xzwko88" class="animable" fill="#263238"/><g style="transform-origin:299.215px 378.14px" class="animable" opacity=".3" id="ellp1tdh24bst"><path d="M318 399.67c-4.56-2.57-9-4.55-13.78-6.72s-9.44-4.94-12.56-9.15c-5.88-7.93-5.21-19.37-11.23-27.19l1.18 15.78c.36 4.82-.38 9.59 2.73 12.87 2.61 2.76 7.71 4.87 11.33 6.07 7.25 2.39 15.07 5.95 22.33 8.34" id="el1a6fw0hailm" class="animable" style="transform-origin:299.215px 378.14px"/></g><g style="transform-origin:334.305px 361.1px" class="animable" opacity=".3" id="elczn7qc18bml"><path id="elab0wxdv1rob" class="animable" style="transform-origin:334.305px 361.1px" d="M332.46 349.73l3.69 22.74-3.49-6.44-.2-16.3z"/></g><path d="M279.2 339.36c-.09 0-.22-1.45-1-3.63a18.25 18.25 0 00-12.92-11.61c-2.26-.56-3.72-.54-3.72-.63a4.12 4.12 0 011 0 16.28 16.28 0 012.77.35 17.68 17.68 0 0113.15 11.82 15.49 15.49 0 01.65 2.72 3.58 3.58 0 01.07.98z" style="transform-origin:270.384px 331.41px" id="elvtcclo063c" class="animable" fill="#263238"/><path d="M330 327.76a74.92 74.92 0 011.5 7.95 74.41 74.41 0 011.05 8 75.45 75.45 0 01-1.5-8 68.79 68.79 0 01-1.05-7.95z" style="transform-origin:331.275px 335.735px" id="elry1ugjisw4g" class="animable" fill="#263238"/><path d="M377.49 455.92s32.77 9.07 34.08 9.53c2 .7 1.64 7.93-1.43 7.81-1.45-.05-25.16.89-28.16.7s-12-3.75-12-3.75z" style="transform-origin:391.398px 464.953px" id="el38aq8haf12v" class="animable" fill="#1b1b51"/><path d="M391.14 468.42a32.26 32.26 0 011.45-3.52 30.44 30.44 0 012.31-3 7.28 7.28 0 00-3.76 6.53z" style="transform-origin:393.019px 465.165px" id="elsqzahcugxoj" class="animable" fill="#263238"/><path d="M387.73 466.87c.16 0 .49-1.52 1.36-3.23s1.9-2.91 1.78-3a8.18 8.18 0 00-3.14 6.25z" style="transform-origin:389.305px 463.765px" id="ell0r4fhtpwqp" class="animable" fill="#263238"/><path d="M384.52 466a11.55 11.55 0 012.55-6.52 6.16 6.16 0 00-2.55 6.52z" style="transform-origin:385.713px 462.74px" id="eluvdifiere8e" class="animable" fill="#263238"/><path d="M385.1 461.78a5.72 5.72 0 00.35-2.44 11.47 11.47 0 00-.33-2.67 11.13 11.13 0 00-.49-1.52 1.72 1.72 0 00-.52-.8.88.88 0 00-1.13.06 1.43 1.43 0 00-.43.92 6.41 6.41 0 000 .87 6.87 6.87 0 00.2 1.6 9.64 9.64 0 001 2.51 6.73 6.73 0 001.47 2c.07 0-.48-.82-1.13-2.15a10.81 10.81 0 01-.86-2.44 7.26 7.26 0 01-.16-1.5c0-.5 0-1.13.3-1.37a.33.33 0 01.44 0 1.55 1.55 0 01.36.57 11.26 11.26 0 01.49 1.45 13 13 0 01.44 2.56c.06 1.41-.1 2.34 0 2.35z" style="transform-origin:384.001px 458.242px" id="elirdsdvpce4r" class="animable" fill="#263238"/><path d="M385.06 461.45a4.55 4.55 0 00-2.11-.34 9.87 9.87 0 00-2.33.28 5.2 5.2 0 00-1.33.5 1.37 1.37 0 00-.74 1.49 1.63 1.63 0 001.18 1.17 2.92 2.92 0 001.47 0 7.17 7.17 0 003.65-2.55 14.41 14.41 0 00-1.75 1.18 5.61 5.61 0 01-2 .87 2.6 2.6 0 01-1.21 0 1.11 1.11 0 01-.8-.78.86.86 0 01.49-.92 5.26 5.26 0 011.18-.46 10.67 10.67 0 012.21-.38c1.27-.1 2.08.03 2.09-.06z" style="transform-origin:381.792px 462.87px" id="el8hnsgxbjjwi" class="animable" fill="#263238"/><path d="M396.18 468.77a17.3 17.3 0 01.64-2.95 17.11 17.11 0 011.61-2.57 3.82 3.82 0 00-2.12 2.36 3.76 3.76 0 00-.13 3.16z" style="transform-origin:397.162px 466.01px" id="elcq6a3ra4c3o" class="animable" fill="#263238"/><path d="M373.31 470.28a6.5 6.5 0 001.27.6 28.41 28.41 0 003.65 1.13 52 52 0 0012.51 1.19c4.91-.06 9.33-.28 12.54-.41l3.8-.2a6.69 6.69 0 001.39-.15 6.52 6.52 0 00-1.4-.06h-3.8l-12.54.25a58.28 58.28 0 01-12.42-1c-3.13-.63-4.96-1.45-5-1.35z" style="transform-origin:390.89px 471.745px" id="elyihlp2w5u09" class="animable" fill="#263238"/><path d="M372.35 471c0 .08.94-.45 2.45-1.11a11.44 11.44 0 016.2-1 9.84 9.84 0 015.36 3.19 20.11 20.11 0 001.89 1.93 9.75 9.75 0 00-1.61-2.2 13.13 13.13 0 00-2.17-2 7.85 7.85 0 00-3.38-1.43 10.81 10.81 0 00-6.45 1.22 8.56 8.56 0 00-2.29 1.4z" style="transform-origin:380.3px 471.155px" id="el5kpc2wtaag7" class="animable" fill="#263238"/><path d="M338.72 448.31s-31 20.3-32.12 21.14c-1.67 1.27.25 7.27 3.14 6.23 1.37-.49 27.38-7.73 30.18-8.82s10.33-7.22 10.33-7.22z" style="transform-origin:328.115px 462.055px" id="el1fi1umbhiwu" class="animable" fill="#1b1b51"/><path d="M329.51 464.37a5.8 5.8 0 00-2.07-3.32 5.87 5.87 0 00-3.5-1.76 27.83 27.83 0 013.13 2.17 31.51 31.51 0 012.44 2.91z" style="transform-origin:326.725px 461.83px" id="eli9ppqfplm6j" class="animable" fill="#263238"/><path d="M332.29 461.86a6 6 0 00-1.89-3.05 6.14 6.14 0 00-3-1.95c-.07.14 1.28.95 2.62 2.33s2.13 2.74 2.27 2.67z" style="transform-origin:329.844px 459.361px" id="el437owjvbc5j" class="animable" fill="#263238"/><path d="M335.09 460.07a6.18 6.18 0 00-4.42-5.45 22 22 0 012.64 2.38 22.57 22.57 0 011.78 3.07z" style="transform-origin:332.88px 457.345px" id="el50i6zz6539p" class="animable" fill="#263238"/><path d="M333.25 456.21c.08 0-.35-.88-.7-2.32a12.77 12.77 0 01-.37-2.57 11.34 11.34 0 010-1.53 1.35 1.35 0 01.16-.65.33.33 0 01.43-.1c.35.14.54.75.7 1.22a7.28 7.28 0 01.31 1.47 11.35 11.35 0 01-.08 2.59c-.22 1.47-.51 2.36-.42 2.39a6.73 6.73 0 00.8-2.33 9.69 9.69 0 00.2-2.69 7.75 7.75 0 00-.29-1.59 5.82 5.82 0 00-.31-.81 1.44 1.44 0 00-.7-.75.85.85 0 00-1.08.29 1.8 1.8 0 00-.26.92 10.68 10.68 0 000 1.6 11.72 11.72 0 00.49 2.65 5.79 5.79 0 001.12 2.21z" style="transform-origin:332.955px 452.582px" id="el7ep0n5xs56p" class="animable" fill="#263238"/><path d="M333.18 455.88c0 .08.77-.29 2-.59a11.2 11.2 0 012.22-.31 5.36 5.36 0 011.27.08.87.87 0 01.75.73 1.12 1.12 0 01-.53 1 2.58 2.58 0 01-1.15.39 6 6 0 01-2.18-.22 14.69 14.69 0 00-2-.6 7 7 0 004.25 1.32 3.05 3.05 0 001.4-.44 1.64 1.64 0 00.77-1.48 1.38 1.38 0 00-1.16-1.2 5.34 5.34 0 00-1.42-.06 10 10 0 00-2.31.43 4.71 4.71 0 00-1.91.95z" style="transform-origin:336.581px 456.08px" id="elhty81g0ecfr" class="animable" fill="#263238"/><path d="M313.69 474.55c0 .05.52-.31.76-1.2a4.58 4.58 0 00-.58-3.37 12.88 12.88 0 00-1-1.54 5.79 5.79 0 00-1.05-1.13 1.88 1.88 0 00-1-.42c-.26 0-.39.05-.39.09a2.86 2.86 0 011.13.62 7.18 7.18 0 01.89 1.13 16.6 16.6 0 011 1.52 4.79 4.79 0 01.68 3 11.82 11.82 0 01-.44 1.3z" style="transform-origin:312.491px 470.722px" id="elmjgnir0zwx" class="animable" fill="#263238"/><path d="M324.82 466.23a4.68 4.68 0 00-3.82-4.57 17.34 17.34 0 012.31 1.95 18 18 0 011.51 2.62z" style="transform-origin:322.91px 463.945px" id="el7384nm2ni6f" class="animable" fill="#263238"/><path d="M347.06 460.73a11.22 11.22 0 00-1.36.94 39.71 39.71 0 01-3.82 2.34 51.54 51.54 0 01-6.08 2.7c-2.34.88-5 1.7-7.76 2.51-5.58 1.61-10.63 3.07-14.27 4.17l-4.31 1.32a9.87 9.87 0 00-1.56.56 9.08 9.08 0 001.62-.35l4.36-1.16c3.67-1 8.73-2.41 14.31-4 2.79-.81 5.44-1.66 7.79-2.57a45 45 0 006.08-2.83 30.7 30.7 0 003.77-2.51 8.81 8.81 0 001.23-1.12z" style="transform-origin:327.48px 468px" id="elh1aruzb77s" class="animable" fill="#263238"/><path d="M348.21 461.15a8.77 8.77 0 00-2.63-.7 10.79 10.79 0 00-6.51.8 7.66 7.66 0 00-2.79 2.39 12.89 12.89 0 00-1.45 2.6 10.11 10.11 0 00-.87 2.57 19.68 19.68 0 001.22-2.41 9.81 9.81 0 014.13-4.66 11.49 11.49 0 016.22-.91c1.65.17 2.66.4 2.68.32z" style="transform-origin:341.085px 464.536px" id="ely4v5m25xjt" class="animable" fill="#263238"/><path d="M403.17 397.55s9.3 3.32 9.34 13.75c.07 20-40.37 42-40.37 42l-53.81-35.66-3.33-1.36s72.6-27.28 88.17-18.73z" style="transform-origin:363.755px 424.595px" id="elv4lg2oelllo" class="animable" fill="#263238"/><path d="M345.59 435.65a10.26 10.26 0 001.4-.95c.88-.64 2.14-1.59 3.68-2.78 3.08-2.38 7.28-5.76 11.78-9.63s8.48-7.5 11.3-10.19c1.42-1.34 2.54-2.44 3.31-3.22a9.69 9.69 0 001.15-1.24 9.11 9.11 0 00-1.3 1.09l-3.42 3.09c-2.88 2.61-6.89 6.19-11.39 10.06s-8.65 7.28-11.67 9.74l-3.57 2.91a10 10 0 00-1.27 1.12z" style="transform-origin:361.9px 421.645px" id="el4r4ud2tedh7" class="animable" fill="#455a64"/><path d="M388 405a10.55 10.55 0 00-5.19.47 10.69 10.69 0 00-4.61 2.42c.09.14 2.05-1.11 4.77-1.9s5.03-.81 5.03-.99z" style="transform-origin:383.1px 406.384px" id="elkwnt2fxna4p" class="animable" fill="#455a64"/><path d="M383.34 401.87a8.17 8.17 0 00-4.86 6c.15.06.74-1.62 2.1-3.28s2.85-2.59 2.76-2.72z" style="transform-origin:380.912px 404.871px" id="elpfc66dehpf" class="animable" fill="#455a64"/><path d="M406.13 465.12c0-.06-.65-.19-1.39.42a5.07 5.07 0 00-1.56 3.12 6.23 6.23 0 00.49 3.45c.38.82.8 1.2.85 1.16A10 10 0 00404 472a7 7 0 01-.3-3.22 5.32 5.32 0 011.27-2.91c.6-.64 1.17-.66 1.16-.75z" style="transform-origin:404.624px 469.169px" id="el870i1tni5km" class="animable" fill="#263238"/><path d="M399.32 369.18L384 410.42a6 6 0 01-5.65 3.87l-84.27-1.11v-6.4l31.27 1.14 13.28-41.17a3.34 3.34 0 013.2-2.32l54.36.15a3.37 3.37 0 013.13 4.6z" style="transform-origin:346.816px 389.36px" id="el4e38ec276he" class="animable" fill="#e0e0e0"/><path d="M399.32 369.18v-.13a2.19 2.19 0 00.11-.39 3.25 3.25 0 000-1.55 3.41 3.41 0 00-1.48-2 3.33 3.33 0 00-1.53-.48h-54.06a3.69 3.69 0 00-2.24.49 3.32 3.32 0 00-1.4 1.84c-4 12.44-8.47 26.29-13.23 41.09v.1h-.1l-31.27-1.14.14-.13v6.4l-.14-.13 53 .71 23 .31 5.31.07h2.58a5.94 5.94 0 002.45-.36 5.82 5.82 0 003.38-3.25l1.64-4.39 10.11-27.11 2.75-7.34c.64-1.68 1-2.55 1-2.55s-.31.88-.93 2.57l-2.7 7.36-10 27.13q-.8 2.16-1.64 4.41a6 6 0 01-3.49 3.37 6.33 6.33 0 01-2.52.37h-2.58l-5.31-.07-23-.29-53-.68H294v-6.68h.14l31.27 1.15-.13.09c4.77-14.8 9.24-28.64 13.26-41.08a3.51 3.51 0 011.5-2 3.87 3.87 0 012.36-.52h13.62l15.89.06 22.67.1h1.88a3.39 3.39 0 011.56.5 3.42 3.42 0 011.49 2 3.15 3.15 0 010 1.57 4.54 4.54 0 01-.19.58z" style="transform-origin:346.805px 389.405px" id="el5msr1oz5vex" class="animable" fill="#263238"/><path d="M362 384.77a3.8 3.8 0 014.1.44 3.31 3.31 0 01.8 3.63 3.59 3.59 0 01-3.08 2.15 3.25 3.25 0 01-3.25-2.15c-.39-1.35 0-3.36 1.43-4.07" style="transform-origin:363.781px 387.68px" id="el2ordgrhxotb" class="animable" fill="#fff"/><path d="M381.22 455.54s-76-48.64-79.3-50.55c-2.85-1.63-10.48-6.32-18-4.25s-14.26 8.82-17.64 18.68c-1.92 5.63-2.83 15.24-3.26 22.45a33.34 33.34 0 007.79 23.75 21.35 21.35 0 009.48 6.73c.79.24 1.62.45 2.46.64A35.77 35.77 0 00320 457.36l1.78-2.7s49.73 18.27 50.51 18z" style="transform-origin:322.082px 436.972px" id="el1lgpu27nkaw" class="animable" fill="#263238"/><path d="M305.84 407.68s-.07 0-.19-.11l-.53-.36c-.47-.32-1.15-.8-2.05-1.38a40.23 40.23 0 00-8.07-4.1 21.83 21.83 0 00-6.07-1.28 17.62 17.62 0 00-7 1.14 22.43 22.43 0 00-6.71 4.08 31.62 31.62 0 00-3 2.92 22 22 0 00-2.46 3.51 36 36 0 00-3.28 7.83c-.71 2.64-1.29 5.26-1.83 7.73a70.34 70.34 0 00-1.73 13.34 48 48 0 00.69 9c.17 1.06.36 1.87.47 2.43q.07.38.12.63a.6.6 0 010 .22.8.8 0 01-.07-.21c-.05-.17-.1-.37-.17-.62-.14-.55-.36-1.36-.55-2.42a45.26 45.26 0 01-.84-9.07 69.33 69.33 0 011.66-13.4c.54-2.49 1.1-5.09 1.82-7.78a35.34 35.34 0 013.31-7.92 21.13 21.13 0 012.52-3.58 29.23 29.23 0 013-3 22.79 22.79 0 016.85-4.13 17.72 17.72 0 017.16-1.12 21.86 21.86 0 016.16 1.35 38.82 38.82 0 018.05 4.25c.89.61 1.56 1.11 2 1.45l.51.4z" style="transform-origin:284.204px 426.644px" id="el0u4gnmipg32e" class="animable" fill="#455a64"/><path d="M287.16 441.81l.41.19 1.25.49 4.82 1.86 17.91 6.75c7.61 2.84 16.72 6.21 26.95 9.93s21.56 7.8 33.66 11.9l.22.07.11-.2c1.9-3.63 3.91-7.46 5.94-11.35l3-5.78.12-.22-.21-.14-58-36.81-17.42-11-4.73-2.95-1.19-.75c-.28-.17-.43-.24-.43-.24l.4.29c.29.19.7.45 1.21.8l4.68 3 17.33 11.13 57.9 37-.1-.36-3 5.79-5.99 11.33.33-.13c-12.1-4.08-23.44-8.15-33.67-11.83l-27-9.82-18-6.6-4.86-1.76-1.26-.45z" style="transform-origin:334.355px 438.28px" id="elbzfn40mqxk" class="animable" fill="#455a64"/><path d="M291.09 280.43a39.06 39.06 0 01-3.38-8.07 13.16 13.16 0 01.45-8.59c.71-1.56 1.82-2.92 2.38-4.54.76-2.22.45-4.85 1.83-6.76 2.15-3 6.76-2.28 10.08-3.84 2.6-1.22 4.41-3.84 7.13-4.71 2.39-.77 5 0 7.28 1s4.54 2.24 7 2.56a50 50 0 005.34 0 7 7 0 014.93 1.7c1.26 1.26 1.52 3.6.16 4.76 3.12-.53 6.06 2.58 6 5.75s-2.43 5.94-5.3 7.26a19 19 0 01-9.32 1.16c-8.93-.7-17.9-4.09-24-10.67" style="transform-origin:313.743px 262.018px" id="elqlufw99yz1n" class="animable" fill="#263238"/><path d="M293 269.26l-6.08 44.21a13.27 13.27 0 0012 15 13.29 13.29 0 0014.32-11.44c.45-3.33.84-6.1.91-6.44 0 0 11.4.49 13.74-10.54 1.14-5.33 2.58-16.49 3.76-26.61a21 21 0 00-16.75-23l-1.07-.22c-11.63-1.61-19.51 7.36-20.83 19.04z" style="transform-origin:309.294px 289.276px" id="ele8i9gfz7ior" class="animable" fill="#ffbe9d"/><path d="M314.2 310.47a26.19 26.19 0 01-13.6-7s1.82 8.64 13 9.84z" style="transform-origin:307.4px 308.39px" id="el4siwdokedtc" class="animable" fill="#eb996e"/><path d="M326.7 282.88a1.63 1.63 0 01-1.85 1.29 1.54 1.54 0 01-1.34-1.75 1.61 1.61 0 011.84-1.29 1.55 1.55 0 011.35 1.75z" style="transform-origin:325.104px 282.649px" id="elivf7hclfeug" class="animable" fill="#263238"/><path d="M328.19 278.43c-.23.17-1.25-1-2.95-1.29s-3.12.26-3.26 0 .2-.44.82-.73a4.38 4.38 0 012.66-.27 4.18 4.18 0 012.3 1.28c.45.58.55.94.43 1.01z" style="transform-origin:325.093px 277.246px" id="elx58yguc2oya" class="animable" fill="#263238"/><path d="M310.85 280.14a1.61 1.61 0 01-1.84 1.29 1.54 1.54 0 01-1.34-1.75 1.6 1.6 0 011.84-1.29 1.54 1.54 0 011.34 1.75z" style="transform-origin:309.26px 279.909px" id="el2gl3zj1z383" class="animable" fill="#263238"/><path d="M311.43 275.41c-.24.17-1.26-1-3-1.29s-3.11.26-3.25 0 .2-.44.82-.73a4.36 4.36 0 012.66-.27 4.18 4.18 0 012.3 1.28c.48.53.58.94.47 1.01z" style="transform-origin:308.31px 274.225px" id="elgvuaefyjs7" class="animable" fill="#263238"/><path d="M315.08 289.24a11.41 11.41 0 012.86.05c.44 0 .87 0 1-.24a2.19 2.19 0 000-1.34c-.2-1.13-.41-2.32-.62-3.56-.85-5.06-1.36-9.19-1.16-9.22s1.05 4 1.89 9.1l.57 3.57a2.55 2.55 0 01-.12 1.75 1.1 1.1 0 01-.84.49 2.92 2.92 0 01-.75 0 11.57 11.57 0 01-2.83-.6z" style="transform-origin:317.401px 282.397px" id="elul2wf23m5cp" class="animable" fill="#263238"/><path d="M309.84 289.42c.28 0-.08 1.88 1.24 3.51s3.32 1.81 3.28 2.07-.51.27-1.34.13a4.76 4.76 0 01-2.77-1.63 4.09 4.09 0 01-.91-2.92c.08-.78.38-1.2.5-1.16z" style="transform-origin:311.844px 292.319px" id="el0id3kiy80hgc" class="animable" fill="#263238"/><path d="M313.2 268.84c-.26.43-1.91-.13-3.95-.29s-3.77.06-3.95-.4c-.08-.22.29-.6 1-.92a6.51 6.51 0 013.07-.43 6.65 6.65 0 013 1c.63.4.95.83.83 1.04z" style="transform-origin:309.257px 267.883px" id="el2fuo6agxqys" class="animable" fill="#263238"/><path d="M328.55 273.39c-.37.32-1.46-.31-2.87-.61s-2.65-.26-2.84-.72c-.08-.22.18-.57.77-.83a4.28 4.28 0 014.61 1.07c.42.5.5.93.33 1.09z" style="transform-origin:325.73px 272.219px" id="elu60ktaz7wse" class="animable" fill="#263238"/><path d="M292.28 277.63c-.17-.12-7.15-3.77-8.42 3.84s6.63 7.31 6.68 7.09 1.74-10.93 1.74-10.93z" style="transform-origin:288.001px 282.645px" id="el6xe2xnhuo0o" class="animable" fill="#ffbe9d"/><path d="M288.7 285.3s-.15.07-.39.13a1.37 1.37 0 01-1-.14c-.76-.43-1.22-1.82-1-3.2a4.42 4.42 0 01.69-1.83 1.53 1.53 0 011.16-.85.69.69 0 01.73.49c.06.23 0 .37 0 .39s.18-.1.17-.42a.8.8 0 00-.22-.53 1 1 0 00-.7-.32 1.92 1.92 0 00-1.58 1 4.63 4.63 0 00-.81 2c-.21 1.54.34 3.1 1.38 3.6a1.45 1.45 0 001.25 0c.28-.14.34-.31.32-.32z" style="transform-origin:287.383px 282.391px" id="eliwh6ckcq79" class="animable" fill="#eb996e"/><path d="M333.84 263.21c-1.3 2.81-8 3.89-12.93 2.41-4.54-1.37-6.18-4.25-9.07-6.76-1.84-1.59-1.84-1.59-4.84-1.86-2.4-.25-4.34 2.15-6.16 3.74 1 6.05-1.67 12-4.29 17.57a3 3 0 01-1.23 1.57c-1 .51-2.26-.29-2.88-1.27a9.52 9.52 0 01-1.07-5.33 31.7 31.7 0 012.56-12.28 21.6 21.6 0 017.95-9.52A20.48 20.48 0 01317 249a25.18 25.18 0 0113.26 8 14.7 14.7 0 013.57 6.28" style="transform-origin:312.585px 264.271px" id="elx1mxzzzmtc" class="animable" fill="#263238"/><path d="M318.37 281.6c.06 0 0-.66.34-1.77a7.38 7.38 0 012.7-3.91 7.15 7.15 0 016.73-1 7 7 0 013.27 2.47 7 7 0 010 8.35 7 7 0 01-3.27 2.47 7.13 7.13 0 01-6.73-1 7.38 7.38 0 01-2.7-3.91c-.3-1.11-.28-1.77-.34-1.76a1.24 1.24 0 000 .47 6.06 6.06 0 00.15 1.35 7.33 7.33 0 002.66 4.2 7.57 7.57 0 0010.76-1.5 7.58 7.58 0 000-9.05 7.5 7.5 0 00-3.57-2.65 7.58 7.58 0 00-7.19 1.15 7.36 7.36 0 00-2.66 4.2 6.06 6.06 0 00-.15 1.35 1.32 1.32 0 000 .54z" style="transform-origin:325.89px 281.539px" id="elk0tl819gsr" class="animable" fill="#263238"/><path d="M300.33 278.45c.06 0 0-.66.34-1.77a7.35 7.35 0 012.69-3.91 7.17 7.17 0 016.74-1 7 7 0 013.27 2.47 7 7 0 010 8.35 7 7 0 01-3.27 2.47 7.15 7.15 0 01-6.74-1 7.35 7.35 0 01-2.69-3.91c-.3-1.11-.28-1.77-.34-1.76s0 .16 0 .47a5.51 5.51 0 00.15 1.35 7.33 7.33 0 002.66 4.2 7.59 7.59 0 0010.76-1.5 7.62 7.62 0 000-9.05 7.59 7.59 0 00-10.76-1.5 7.36 7.36 0 00-2.66 4.2 5.51 5.51 0 00-.15 1.35c-.04.37-.03.54 0 .54z" style="transform-origin:307.846px 278.385px" id="elfpm0s24bbqs" class="animable" fill="#263238"/><path d="M315.19 278.7c.08.16 1-.3 2.17.05s1.68 1.24 1.83 1.16 0-.33-.22-.71a2.64 2.64 0 00-1.43-1 2.68 2.68 0 00-1.78.07c-.42.14-.61.36-.57.43z" style="transform-origin:317.218px 278.998px" id="ele0e8sho35nq" class="animable" fill="#263238"/><path d="M290.1 276.5c0 .17 2.43.27 5.42.23s5.41-.22 5.41-.39-2.43-.27-5.42-.23-5.41.22-5.41.39z" style="transform-origin:295.515px 276.42px" id="elci47m589bt8" class="animable" fill="#263238"/></g><defs><filter id="active" height="200%"><feMorphology in="SourceAlpha" result="DILATED" operator="dilate" radius="2"/><feFlood flood-color="#32DFEC" flood-opacity="1" result="PINK"/><feComposite in="PINK" in2="DILATED" operator="in" result="OUTLINE"/><feMerge><feMergeNode in="OUTLINE"/><feMergeNode in="SourceGraphic"/></feMerge></filter><filter id="hover" height="200%"><feMorphology in="SourceAlpha" result="DILATED" operator="dilate" radius="2"/><feFlood flood-color="red" flood-opacity=".5" result="PINK"/><feComposite in="PINK" in2="DILATED" operator="in" result="OUTLINE"/><feMerge><feMergeNode in="OUTLINE"/><feMergeNode in="SourceGraphic"/></feMerge><feColorMatrix values="0 0 0 0 0 0 1 0 0 0 0 0 0 0 0 0 0 0 1 0"/></filter></defs></svg>